# xmcd
#
# Track frame offsets:
#	150
#	15956
#	35208
#	58285
#	75299
#	103503
#	126174
#	145992
#	161505
#	178917
#	201924
#	229818
#	251077
#	266635
#	285145
#
# Disc length: 4032 seconds
#
# Revision: 1
# Processed by: cddbd v1.4PL0 Copyright (c) Steve Scherf et al.
# Submitted via: audiograbber 1.81.01
#
DISCID=d00fbe0f
DTITLE=Uvee Hayes - There'll Be A Time
DYEAR=2001
DGENRE=Blues
TTITLE0=There'll Be A Time
TTITLE1=Party, Party, Party
TTITLE2=Walk Away
TTITLE3=Hound Dog
TTITLE4=Built For Comfort
TTITLE5=Get Your Dance On
TTITLE6=One Side Relationship
TTITLE7=I Just Want To Make Love To You
TTITLE8=Outside Lover
TTITLE9=In My Eyes
TTITLE10=He's My Man (feat. Stevie Wonder)
TTITLE11=BYOM, Bring Your Own Man
TTITLE12=Do Ya?
TTITLE13=Just Two People Sharing The Same Address
TTITLE14=Howling For My Darling
EXTD=Released 2001 by Mission Park Records (St Louis, MO]\nMPCD 1954
EXTT0=
EXTT1=
EXTT2=
EXTT3=
EXTT4=
EXTT5=
EXTT6=
EXTT7=
EXTT8=
EXTT9=
EXTT10=
EXTT11=
EXTT12=
EXTT13=
EXTT14=
PLAYORDER=
